<svg width="42" height="44" viewBox="0 0 42 44" fill="none" xmlns="http://www.w3.org/2000/svg">
<path id="Vector" d="M6.05625 22L22.6437 0.80625C22.9 0.48125 22.6687 0 22.25 0H17.4187C17.1125 0 16.8187 0.14375 16.6312 0.38125L0.674996 20.7687C0.398655 21.1209 0.248459 21.5555 0.248459 22.0031C0.248459 22.4507 0.398655 22.8854 0.674996 23.2375L16.6312 43.6188C16.8187 43.8625 17.1125 44 17.4187 44H22.25C22.6687 44 22.9 43.5187 22.6437 43.1937L6.05625 22ZM25.0562 22L41.6437 0.80625C41.9 0.48125 41.6687 0 41.25 0H36.4187C36.1125 0 35.8187 0.14375 35.6312 0.38125L19.675 20.7687C19.3987 21.1209 19.2485 21.5555 19.2485 22.0031C19.2485 22.4507 19.3987 22.8854 19.675 23.2375L35.6312 43.6188C35.8187 43.8625 36.1125 44 36.4187 44H41.25C41.6687 44 41.9 43.5187 41.6437 43.1937L25.0562 22Z" fill="#C1A8A8"/>
</svg>
