<svg width="54" height="50" viewBox="0 0 54 50" fill="none" xmlns="http://www.w3.org/2000/svg">
<path d="M52.6875 10.725C51.8497 8.78523 50.6418 7.02743 49.1312 5.55C47.6196 4.06816 45.8373 2.89057 43.8812 2.08125C41.853 1.2387 39.6776 0.807443 37.4813 0.812498C34.4 0.812498 31.3937 1.65625 28.7812 3.25C28.1562 3.63125 27.5625 4.05 27 4.50625C26.4375 4.05 25.8438 3.63125 25.2188 3.25C22.6063 1.65625 19.6 0.812498 16.5187 0.812498C14.3 0.812498 12.15 1.2375 10.1187 2.08125C8.15625 2.89375 6.3875 4.0625 4.86875 5.55C3.35623 7.02576 2.14799 8.78398 1.3125 10.725C0.44375 12.7437 0 14.8875 0 17.0937C0 19.175 0.425 21.3437 1.26875 23.55C1.975 25.3937 2.9875 27.3062 4.28125 29.2375C6.33125 32.2937 9.15 35.4813 12.65 38.7125C18.45 44.0688 24.1937 47.7688 24.4375 47.9188L25.9188 48.8688C26.575 49.2875 27.4188 49.2875 28.075 48.8688L29.5563 47.9188C29.8 47.7625 35.5375 44.0688 41.3438 38.7125C44.8438 35.4813 47.6625 32.2937 49.7125 29.2375C51.0063 27.3062 52.025 25.3937 52.725 23.55C53.5687 21.3437 53.9938 19.175 53.9938 17.0937C54 14.8875 53.5562 12.7437 52.6875 10.725ZM27 43.925C27 43.925 4.75 29.6687 4.75 17.0937C4.75 10.725 10.0187 5.5625 16.5187 5.5625C21.0875 5.5625 25.05 8.1125 27 11.8375C28.95 8.1125 32.9125 5.5625 37.4813 5.5625C43.9813 5.5625 49.25 10.725 49.25 17.0937C49.25 29.6687 27 43.925 27 43.925Z" fill="#1A1A1A"/>
</svg>
