<svg width="49" height="52" viewBox="0 0 49 52" fill="none" xmlns="http://www.w3.org/2000/svg">
<path d="M47.9939 42.0015H42.9939V37.0015C42.9939 36.7265 42.7689 36.5015 42.4939 36.5015H39.4939C39.2189 36.5015 38.9939 36.7265 38.9939 37.0015V42.0015H33.9939C33.7189 42.0015 33.4939 42.2265 33.4939 42.5015V45.5015C33.4939 45.7765 33.7189 46.0015 33.9939 46.0015H38.9939V51.0015C38.9939 51.2765 39.2189 51.5015 39.4939 51.5015H42.4939C42.7689 51.5015 42.9939 51.2765 42.9939 51.0015V46.0015H47.9939C48.2689 46.0015 48.4939 45.7765 48.4939 45.5015V42.5015C48.4939 42.2265 48.2689 42.0015 47.9939 42.0015ZM15.5877 24.9015C15.5314 24.3577 15.5002 23.8077 15.5002 23.2515C15.5002 22.2577 15.5939 21.289 15.7689 20.3452C15.8127 20.1202 15.6939 19.889 15.4877 19.7952C14.6377 19.414 13.8564 18.889 13.1814 18.2265C12.386 17.4553 11.7601 16.5267 11.3437 15.5001C10.9272 14.4735 10.7293 13.3713 10.7627 12.264C10.8189 10.2577 11.6252 8.35147 13.0314 6.91397C14.5752 5.33272 16.6502 4.47022 18.8564 4.49522C20.8502 4.51397 22.7752 5.28272 24.2314 6.64522C24.7252 7.10772 25.1502 7.62022 25.5064 8.17022C25.6314 8.36397 25.8752 8.44522 26.0877 8.37022C27.1877 7.98897 28.3502 7.72022 29.5439 7.59522C29.8939 7.55772 30.0939 7.18272 29.9377 6.87022C27.9064 2.85147 23.7564 0.0764665 18.9564 0.00146648C12.0314 -0.104784 6.25641 5.57647 6.25641 12.5015C6.25641 16.4265 8.06266 19.9265 10.8939 22.2202C8.90641 23.139 7.07516 24.4077 5.48766 25.9952C2.06266 29.414 0.125156 33.9265 0.000156282 38.7452C-0.00151187 38.8119 0.0101888 38.8783 0.0345682 38.9404C0.0589476 39.0025 0.0955128 39.0591 0.142109 39.1069C0.188706 39.1546 0.244391 39.1926 0.305883 39.2185C0.367375 39.2444 0.433431 39.2577 0.500157 39.2577H4.00641C4.27516 39.2577 4.50016 39.0452 4.50641 38.7765C4.62516 35.1515 6.09391 31.7577 8.67516 29.1827C10.5127 27.3452 12.7627 26.0702 15.2189 25.4515C15.4564 25.3827 15.6189 25.1515 15.5877 24.9015ZM43.7439 23.2515C43.7439 16.414 38.2502 10.8577 31.4377 10.7515C24.5127 10.6452 18.7439 16.3265 18.7439 23.2515C18.7439 27.1765 20.5564 30.6765 23.3814 32.9702C21.3733 33.901 19.5453 35.179 17.9814 36.7452C14.5564 40.164 12.6189 44.6765 12.4939 49.489C12.4922 49.5557 12.5039 49.622 12.5283 49.6841C12.5527 49.7463 12.5893 49.8029 12.6359 49.8506C12.6825 49.8984 12.7381 49.9363 12.7996 49.9622C12.8611 49.9882 12.9272 50.0015 12.9939 50.0015H16.4939C16.7627 50.0015 16.9877 49.789 16.9939 49.5202C17.1127 45.8952 18.5814 42.5015 21.1627 39.9265C23.8564 37.2327 27.4314 35.7515 31.2439 35.7515C38.1439 35.7515 43.7439 30.1577 43.7439 23.2515ZM36.9002 28.9077C35.3877 30.4202 33.3814 31.2515 31.2439 31.2515C29.1064 31.2515 27.1002 30.4202 25.5877 28.9077C24.8329 28.1569 24.2365 27.2622 23.8339 26.2766C23.4313 25.2911 23.2307 24.2347 23.2439 23.1702C23.2627 21.1202 24.0814 19.139 25.5127 17.6702C27.0127 16.1327 29.0189 15.2765 31.1627 15.2515C33.2814 15.2327 35.3377 16.0577 36.8502 17.539C38.4002 19.0577 39.2502 21.089 39.2502 23.2515C39.2439 25.389 38.4127 27.3952 36.9002 28.9077Z" fill="#1A1A1A"/>
</svg>
