<svg width="64" height="64" viewBox="0 0 64 64" fill="none" xmlns="http://www.w3.org/2000/svg">
<path d="M23 45.25H15.75V38C15.75 37.725 15.525 37.5 15.25 37.5H12.25C11.975 37.5 11.75 37.725 11.75 38V45.25H4.5C4.225 45.25 4 45.475 4 45.75V48.75C4 49.025 4.225 49.25 4.5 49.25H11.75V56.5C11.75 56.775 11.975 57 12.25 57H15.25C15.525 57 15.75 56.775 15.75 56.5V49.25H23C23.275 49.25 23.5 49.025 23.5 48.75V45.75C23.5 45.475 23.275 45.25 23 45.25Z" fill="#1A1A1A"/>
<path d="M57 18.8937L49 23.5V14C49 11.7938 47.2062 10 45 10H8C5.79375 10 4 11.7938 4 14V36H8.5V14.5H44.5V49.5H28V54H45C47.2062 54 49 52.2062 49 50V40.5L57 45.1063C58.3312 45.875 60 44.9125 60 43.3812V20.625C60 19.0875 58.3312 18.125 57 18.8937ZM55.5 39.0625L49 35.325V28.6812L55.5 24.9375V39.0625Z" fill="#1A1A1A"/>
<path d="M20 22.5C20.275 22.5 20.5 22.275 20.5 22V19C20.5 18.725 20.275 18.5 20 18.5H13C12.725 18.5 12.5 18.725 12.5 19V22C12.5 22.275 12.725 22.5 13 22.5H20Z" fill="#1A1A1A"/>
</svg>
