<svg width="42" height="43" viewBox="0 0 42 43" fill="none" xmlns="http://www.w3.org/2000/svg">
<path d="M41.5715 20.8491L1.12032 0.0825563C0.955902 -0.00161887 0.767307 -0.0214246 0.588383 0.0231387C0.177343 0.12712 -0.0789533 0.552947 0.0225979 0.978774L4.19103 18.4179C4.2539 18.6803 4.44249 18.8932 4.69395 18.9774L11.8364 21.4878L4.69879 23.9982C4.44733 24.0873 4.25873 24.2953 4.2007 24.5577L0.0225979 42.0216C-0.0209241 42.2048 -0.00158077 42.3979 0.0806273 42.5613C0.269222 42.9525 0.733456 43.1109 1.12032 42.9178L41.5715 22.2701C41.7214 22.1959 41.8423 22.0671 41.9197 21.9186C42.1083 21.5225 41.9536 21.0471 41.5715 20.8491ZM4.79067 37.0602L7.22306 26.88L21.4983 21.8641C21.6095 21.8245 21.7014 21.7354 21.74 21.6165C21.8077 21.4086 21.7014 21.1858 21.4983 21.1115L7.22306 16.1006L4.80034 5.95996L35.169 21.5522L4.79067 37.0602Z" fill="#1A1A1A"/>
</svg>
