<svg width="36" height="38" viewBox="0 0 36 38" fill="none" xmlns="http://www.w3.org/2000/svg">
<path d="M17.9375 0C8.03184 0 0 8.42363 0 18.8125C0 29.2014 8.03184 37.625 17.9375 37.625C27.8432 37.625 35.875 29.2014 35.875 18.8125C35.875 8.42363 27.8432 0 17.9375 0ZM8.96875 14.9912C8.97902 14.4638 9.18601 13.9615 9.54531 13.5923C9.90462 13.2231 10.3876 13.0163 10.8906 13.0163C11.3936 13.0163 11.8766 13.2231 12.2359 13.5923C12.5952 13.9615 12.8022 14.4638 12.8125 14.9912C12.8022 15.5187 12.5952 16.0209 12.2359 16.3901C11.8766 16.7593 11.3936 16.9661 10.8906 16.9661C10.3876 16.9661 9.90462 16.7593 9.54531 16.3901C9.18601 16.0209 8.97902 15.5187 8.96875 14.9912ZM17.9375 26.4131C14.5142 26.4131 11.7074 23.587 11.5312 20.0471C11.5291 20.0016 11.5358 19.9561 11.5509 19.9133C11.566 19.8706 11.5892 19.8316 11.6192 19.7986C11.6492 19.7656 11.6852 19.7393 11.7252 19.7214C11.7651 19.7035 11.8081 19.6943 11.8516 19.6943H13.7774C13.9456 19.6943 14.0897 19.8287 14.1018 20.0051C14.2539 22.0837 15.9155 23.7256 17.9375 23.7256C19.9595 23.7256 21.6251 22.0837 21.7732 20.0051C21.7853 19.8287 21.9294 19.6943 22.0976 19.6943H24.0234C24.0669 19.6943 24.1099 19.7035 24.1498 19.7214C24.1898 19.7393 24.2258 19.7656 24.2558 19.7986C24.2858 19.8316 24.309 19.8706 24.3241 19.9133C24.3392 19.9561 24.3459 20.0016 24.3438 20.0471C24.1676 23.587 21.3608 26.4131 17.9375 26.4131ZM24.9844 17.0068C24.4815 16.9961 24.0026 16.779 23.6506 16.4021C23.2985 16.0253 23.1013 15.5188 23.1013 14.9912C23.1013 14.4636 23.2985 13.9571 23.6506 13.5803C24.0026 13.2034 24.4815 12.9864 24.9844 12.9756C25.4873 12.9864 25.9662 13.2034 26.3182 13.5803C26.6702 13.9571 26.8674 14.4636 26.8674 14.9912C26.8674 15.5188 26.6702 16.0253 26.3182 16.4021C25.9662 16.779 25.4873 16.9961 24.9844 17.0068Z" fill="#1A1A1A"/>
</svg>
