<svg width="117" height="101" viewBox="0 0 117 101" fill="none" xmlns="http://www.w3.org/2000/svg">
<path d="M84.322 66.418C88.0796 64.8311 92.3807 63.9277 96.9612 63.9277H96.9768C97.4426 63.9277 97.66 63.4883 97.3184 63.2441C92.5548 59.8833 87.1132 57.1688 81.2165 55.2119C81.1544 55.1875 81.0923 55.1753 81.0302 55.1509C90.6727 49.6455 96.9457 40.6978 96.9457 30.6025C96.9457 13.8789 79.7414 0.329102 58.5155 0.329102C37.2896 0.329102 20.1009 13.8789 20.1009 30.6025C20.1009 40.6978 26.3739 49.6455 36.0319 55.1509C35.9698 55.1753 35.9077 55.1875 35.8456 55.2119C28.9049 57.519 22.6784 60.8271 17.3215 65.0508C11.9955 69.2303 7.7553 74.1849 4.8375 79.6382C1.9667 84.9783 0.417353 90.6998 0.27246 96.4961C0.268316 96.6264 0.297383 96.756 0.357951 96.8773C0.418519 96.9986 0.50936 97.1092 0.625123 97.2025C0.740886 97.2958 0.879229 97.3699 1.032 97.4205C1.18477 97.4711 1.34887 97.4971 1.51465 97.4971H10.8155C11.4832 97.4971 12.0422 97.0698 12.0577 96.5449C12.3683 87.1211 17.1662 78.2954 25.6597 71.606C34.4326 64.6846 46.1092 60.876 58.5311 60.876C67.3351 60.876 75.7819 62.7925 83.0643 66.3813C83.2513 66.4738 83.4661 66.5258 83.6869 66.5322C83.9077 66.5387 84.1267 66.4993 84.322 66.418ZM58.5311 51.5986C51.4195 51.5986 44.7272 49.4136 39.6809 45.4463C37.198 43.4994 35.2296 41.1855 33.8892 38.6379C32.5487 36.0904 31.8627 33.3595 31.8706 30.6025C31.8706 24.9995 34.65 19.7261 39.6809 15.7588C44.7117 11.7915 51.404 9.60645 58.5311 9.60645C65.6581 9.60645 72.3349 11.7915 77.3812 15.7588C79.8641 17.7057 81.8325 20.0196 83.173 22.5672C84.5134 25.1147 85.1994 27.8456 85.1915 30.6025C85.1915 36.2056 82.4121 41.479 77.3812 45.4463C72.3349 49.4136 65.6426 51.5986 58.5311 51.5986ZM115.641 80.6514H102.598V70.3975C102.598 69.8604 102.039 69.4209 101.355 69.4209H92.6602C91.977 69.4209 91.418 69.8604 91.418 70.3975V80.6514H78.375C77.6918 80.6514 77.1328 81.0908 77.1328 81.6279V88.4639C77.1328 89.001 77.6918 89.4404 78.375 89.4404H91.418V99.6943C91.418 100.231 91.977 100.671 92.6602 100.671H101.355C102.039 100.671 102.598 100.231 102.598 99.6943V89.4404H115.641C116.324 89.4404 116.883 89.001 116.883 88.4639V81.6279C116.883 81.0908 116.324 80.6514 115.641 80.6514Z" fill="#1A1A1A"/>
</svg>
