<svg width="56" height="56" viewBox="0 0 56 56" fill="none" xmlns="http://www.w3.org/2000/svg">
<path d="M28 0C12.5375 0 0 12.5375 0 28C0 43.4625 12.5375 56 28 56C43.4625 56 56 43.4625 56 28C56 12.5375 43.4625 0 28 0ZM40 29.5C40 29.775 39.775 30 39.5 30H30V39.5C30 39.775 29.775 40 29.5 40H26.5C26.225 40 26 39.775 26 39.5V30H16.5C16.225 30 16 29.775 16 29.5V26.5C16 26.225 16.225 26 16.5 26H26V16.5C26 16.225 26.225 16 26.5 16H29.5C29.775 16 30 16.225 30 16.5V26H39.5C39.775 26 40 26.225 40 26.5V29.5Z" fill="#1A1A1A"/>
</svg>
