<svg width="64" height="64" viewBox="0 0 64 64" fill="none" xmlns="http://www.w3.org/2000/svg">
<path d="M35.8125 26.3125C34.3687 26.3125 33.25 27.4312 33.25 28.8125C33.25 30.1938 34.3687 31.3125 35.8125 31.3125C37.1313 31.3125 38.25 30.1938 38.25 28.8125C38.25 27.4312 37.1313 26.3125 35.8125 26.3125ZM18.3125 26.3125C16.8687 26.3125 15.75 27.4312 15.75 28.8125C15.75 30.1938 16.8687 31.3125 18.3125 31.3125C19.6313 31.3125 20.75 30.1938 20.75 28.8125C20.75 27.4312 19.6313 26.3125 18.3125 26.3125Z" fill="#1A1A1A"/>
<path d="M55.875 21.5625C52.8687 17.4375 48.6687 14.6813 44.0625 13.4375V13.4438C42.9937 12.2563 41.7875 11.1625 40.4375 10.1875C30.2062 2.75 15.8437 5.01875 8.37499 15.25C2.35624 23.5625 2.61249 34.7438 8.74999 42.6875L8.79999 50.975C8.79999 51.175 8.83124 51.375 8.89374 51.5625C9.22499 52.6188 10.35 53.2 11.4 52.8688L19.3125 50.375C21.4062 51.1188 23.5687 51.5438 25.7187 51.6625L25.6875 51.6875C31.2562 55.7438 38.5562 56.9625 45.25 54.75L53.1937 57.3375C53.3937 57.4 53.6 57.4375 53.8125 57.4375C54.9187 57.4375 55.8125 56.5438 55.8125 55.4375V47.0625C61.3187 39.5875 61.4625 29.2563 55.875 21.5625ZM20.1875 45.9375L19.4375 45.625L13.25 47.5625L13.1875 41.0625L12.6875 40.5C7.39999 34.05 7.04999 24.7563 12 17.9375C18.025 9.675 29.575 7.85 37.8125 13.8125C46.075 19.8188 47.9062 31.35 41.9375 39.5625C36.9312 46.4313 27.9687 48.9688 20.1875 45.9375ZM51.75 44.875L51.25 45.5L51.3125 52L45.1875 49.9375L44.4375 50.25C40.9375 51.55 37.2062 51.6563 33.75 50.6875L33.7375 50.6813C38.3562 49.2625 42.5437 46.3875 45.5625 42.25C50.3375 35.6688 51.1125 27.4 48.3375 20.35L48.375 20.375C49.8125 21.4063 51.1312 22.6938 52.25 24.25C56.7875 30.475 56.5312 38.95 51.75 44.875Z" fill="#1A1A1A"/>
<path d="M27.0625 26.3125C25.6187 26.3125 24.5 27.4312 24.5 28.8125C24.5 30.1938 25.6187 31.3125 27.0625 31.3125C28.3813 31.3125 29.5 30.1938 29.5 28.8125C29.5 27.4312 28.3813 26.3125 27.0625 26.3125Z" fill="#1A1A1A"/>
</svg>
