<svg width="42" height="44" viewBox="0 0 42 44" fill="none" xmlns="http://www.w3.org/2000/svg">
<path id="Vector" d="M22.076 20.7687L6.11976 0.38125C5.93226 0.1375 5.63851 0 5.33226 0H0.501011C0.0822611 0 -0.148989 0.48125 0.107261 0.80625L16.6948 22L0.107261 43.1937C0.0495534 43.2674 0.0137469 43.3559 0.00393508 43.449C-0.0058767 43.542 0.0107028 43.636 0.0517771 43.7201C0.0928514 43.8042 0.156763 43.8751 0.236205 43.9246C0.315647 43.9741 0.407413 44.0002 0.501011 44H5.33226C5.63851 44 5.93226 43.8563 6.11976 43.6188L22.076 23.2375C22.6448 22.5062 22.6448 21.4937 22.076 20.7687ZM41.076 20.7687L25.1198 0.38125C24.9323 0.1375 24.6385 0 24.3323 0H19.501C19.0823 0 18.851 0.48125 19.1073 0.80625L35.6948 22L19.1073 43.1937C19.0496 43.2674 19.0137 43.3559 19.0039 43.449C18.9941 43.542 19.0107 43.636 19.0518 43.7201C19.0929 43.8042 19.1568 43.8751 19.2362 43.9246C19.3156 43.9741 19.4074 44.0002 19.501 44H24.3323C24.6385 44 24.9323 43.8563 25.1198 43.6188L41.076 23.2375C41.6448 22.5062 41.6448 21.4937 41.076 20.7687Z" fill="#B38D8D"/>
</svg>
