<svg width="53" height="56" viewBox="0 0 53 56" fill="none" xmlns="http://www.w3.org/2000/svg">
<path d="M26.4932 20.3469C24.6244 20.3469 22.8744 21.0719 21.5494 22.3969C20.2307 23.7219 19.4994 25.4719 19.4994 27.3406C19.4994 29.2094 20.2307 30.9594 21.5494 32.2844C22.8744 33.6031 24.6244 34.3344 26.4932 34.3344C28.3619 34.3344 30.1119 33.6031 31.4369 32.2844C32.7557 30.9594 33.4869 29.2094 33.4869 27.3406C33.4869 25.4719 32.7557 23.7219 31.4369 22.3969C30.7898 21.7447 30.0195 21.2277 29.1708 20.8758C28.3221 20.5238 27.4119 20.3441 26.4932 20.3469ZM52.2619 35.0656L48.1744 31.5719C48.3682 30.3844 48.4682 29.1719 48.4682 27.9656C48.4682 26.7594 48.3682 25.5406 48.1744 24.3594L52.2619 20.8656C52.5707 20.6013 52.7917 20.2492 52.8955 19.8562C52.9994 19.4633 52.9811 19.048 52.8432 18.6656L52.7869 18.5031C51.662 15.3574 49.9765 12.4416 47.8119 9.89687L47.6994 9.76562C47.4366 9.45658 47.0863 9.23442 46.6947 9.12842C46.3031 9.02243 45.8885 9.03758 45.5057 9.17188L40.4307 10.9781C38.5557 9.44062 36.4682 8.22813 34.2057 7.38438L33.2244 2.07813C33.1504 1.67839 32.9565 1.31064 32.6685 1.02374C32.3805 0.736832 32.012 0.544355 31.6119 0.471875L31.4432 0.440625C28.1932 -0.146875 24.7682 -0.146875 21.5182 0.440625L21.3494 0.471875C20.9494 0.544355 20.5809 0.736832 20.2929 1.02374C20.0049 1.31064 19.811 1.67839 19.7369 2.07813L18.7494 7.40938C16.5084 8.25985 14.4207 9.46941 12.5682 10.9906L7.45569 9.17188C7.07298 9.03651 6.65814 9.02082 6.26629 9.12687C5.87444 9.23293 5.52414 9.45571 5.26194 9.76562L5.14944 9.89687C2.98877 12.4443 1.30364 15.3594 0.174444 18.5031L0.118194 18.6656C-0.163056 19.4469 0.0681944 20.3219 0.699444 20.8656L4.83694 24.3969C4.64319 25.5719 4.54944 26.7719 4.54944 27.9594C4.54944 29.1594 4.64319 30.3594 4.83694 31.5219L0.711944 35.0531C0.403167 35.3175 0.182172 35.6695 0.078344 36.0625C-0.0254839 36.4555 -0.00722475 36.8708 0.130694 37.2531L0.186944 37.4156C1.31819 40.5594 2.98694 43.4656 5.16194 46.0219L5.27444 46.1531C5.53728 46.4622 5.88759 46.6843 6.27921 46.7903C6.67082 46.8963 7.08536 46.8812 7.46819 46.7469L12.5807 44.9281C14.4432 46.4594 16.5182 47.6719 18.7619 48.5094L19.7494 53.8406C19.8235 54.2404 20.0174 54.6081 20.3054 54.895C20.5934 55.1819 20.9619 55.3744 21.3619 55.4469L21.5307 55.4781C24.8127 56.0688 28.1737 56.0688 31.4557 55.4781L31.6244 55.4469C32.0245 55.3744 32.393 55.1819 32.681 54.895C32.969 54.6081 33.1629 54.2404 33.2369 53.8406L34.2182 48.5344C36.4807 47.6844 38.5682 46.4781 40.4432 44.9406L45.5182 46.7469C45.9009 46.8822 46.3158 46.8979 46.7076 46.7919C47.0994 46.6858 47.4497 46.463 47.7119 46.1531L47.8244 46.0219C49.9994 43.4531 51.6682 40.5594 52.7994 37.4156L52.8557 37.2531C53.1244 36.4781 52.8932 35.6094 52.2619 35.0656ZM26.4932 38.3281C20.4244 38.3281 15.5057 33.4094 15.5057 27.3406C15.5057 21.2719 20.4244 16.3531 26.4932 16.3531C32.5619 16.3531 37.4807 21.2719 37.4807 27.3406C37.4807 33.4094 32.5619 38.3281 26.4932 38.3281Z" fill="#1A1A1A"/>
</svg>
